<svg width="150" height="150" viewBox="0 0 150 150" fill="none" xmlns="http://www.w3.org/2000/svg">
    <rect x="19.1134" y="59.4766" width="76.7005" height="27.0305" rx="13.5152" transform="rotate(45 19.1134 59.4766)"
          fill="#00FF47" fill-opacity="0.5"/>
    <rect x="19.1134" y="61.5979" width="73.7005" height="24.0305" rx="12.0152" transform="rotate(45 19.1134 61.5979)"
          stroke="white" stroke-opacity="0.5" stroke-width="3"/>
    <path d="M44.8761 123.124C39.598 117.846 39.598 109.288 44.876 104.01L121.33 27.5567C126.608 22.2787 135.165 22.2787 140.443 27.5567V27.5567C145.721 32.8347 145.721 41.3921 140.443 46.6701L63.9895 123.124C58.7114 128.402 50.1541 128.402 44.8761 123.124V123.124Z"
          fill="#00FF47" fill-opacity="0.5"/>
    <path d="M45.9367 105.071L122.39 28.6173C127.083 23.9251 134.69 23.9251 139.383 28.6173C144.075 33.3096 144.075 40.9172 139.383 45.6095L62.9288 122.063C58.2366 126.755 50.629 126.755 45.9367 122.063C41.2445 117.371 41.2445 109.763 45.9367 105.071Z"
          stroke="white" stroke-opacity="0.5" stroke-width="3"/>
</svg>
