<svg width="250" height="192" viewBox="0 0 250 192" fill="none" xmlns="http://www.w3.org/2000/svg">
    <rect x="31.8198" y="69.0494" width="127.69" height="45" rx="22.5" transform="rotate(45 31.8198 69.0494)"
          fill="#FBFBFB" fill-opacity="0.49"/>
    <rect x="31.8198" y="71.1708" width="124.69" height="42" rx="21" transform="rotate(45 31.8198 71.1708)"
          stroke="white" stroke-opacity="0.5" stroke-width="3"/>
    <path d="M74.7092 175.009C65.9224 166.222 65.9224 151.976 74.7092 143.189L201.988 15.9099C210.775 7.12307 225.021 7.12307 233.808 15.9099V15.9099C242.595 24.6967 242.595 38.9429 233.808 47.7297L106.529 175.009C97.7422 183.796 83.496 183.796 74.7092 175.009V175.009Z"
          fill="#FBFBFB" fill-opacity="0.49"/>
    <path d="M75.7699 144.25L203.049 16.9705C211.25 8.76952 224.547 8.76951 232.748 16.9705C240.949 25.1715 240.949 38.468 232.748 46.669L105.468 173.948C97.2674 182.149 83.9709 182.149 75.7699 173.948C67.5689 165.747 67.5689 152.451 75.7699 144.25Z"
          stroke="white" stroke-opacity="0.5" stroke-width="3"/>
</svg>
