<svg width="150" height="150" viewBox="0 0 150 150" fill="none" xmlns="http://www.w3.org/2000/svg">
    <mask id="path-3-inside-1" fill="white">
        <path d="M74.5222 88.7494L85.2069 70.5252L142.456 104.09C147.488 107.04 149.176 113.512 146.226 118.544V118.544C143.275 123.577 136.804 125.265 131.771 122.314L74.5222 88.7494Z"/>
    </mask>
    <path d="M74.5222 88.7494L85.2069 70.5252L142.456 104.09C147.488 107.04 149.176 113.512 146.226 118.544V118.544C143.275 123.577 136.804 125.265 131.771 122.314L74.5222 88.7494Z"
          fill="#0040FF" fill-opacity="0.5"/>
    <path d="M74.5222 88.7494L71.9342 87.232L70.4168 89.82L73.0048 91.3374L74.5222 88.7494ZM85.2069 70.5252L86.7242 67.9372L84.1362 66.4199L82.6189 69.0079L85.2069 70.5252ZM131.771 122.314L130.254 124.902L131.771 122.314ZM142.456 104.09L140.939 106.678L142.456 104.09ZM77.1102 90.2667L87.7949 72.0425L82.6189 69.0079L71.9342 87.232L77.1102 90.2667ZM83.6895 73.1132L140.939 106.678L143.973 101.502L86.7242 67.9372L83.6895 73.1132ZM133.289 119.726L76.0395 86.1614L73.0048 91.3374L130.254 124.902L133.289 119.726ZM143.638 117.027C141.525 120.63 136.892 121.839 133.289 119.726L130.254 124.902C136.716 128.691 145.025 126.523 148.814 120.062L143.638 117.027ZM140.939 106.678C144.542 108.79 145.75 113.424 143.638 117.027L148.814 120.062C152.602 113.6 150.435 105.29 143.973 101.502L140.939 106.678Z"
          fill="white" mask="url(#path-3-inside-1)"/>
    <mask id="path-5-inside-2" fill="white">
        <path fill-rule="evenodd" clip-rule="evenodd"
              d="M45.2687 102.537C70.27 102.537 90.5375 82.27 90.5375 57.2687C90.5375 32.2675 70.27 12 45.2687 12C20.2675 12 0 32.2675 0 57.2687C0 82.27 20.2675 102.537 45.2687 102.537ZM45.2687 84.43C60.2695 84.43 72.43 72.2695 72.43 57.2687C72.43 42.268 60.2695 30.1075 45.2687 30.1075C30.268 30.1075 18.1075 42.268 18.1075 57.2687C18.1075 72.2695 30.268 84.43 45.2687 84.43Z"/>
    </mask>
    <path fill-rule="evenodd" clip-rule="evenodd"
          d="M45.2687 102.537C70.27 102.537 90.5375 82.27 90.5375 57.2687C90.5375 32.2675 70.27 12 45.2687 12C20.2675 12 0 32.2675 0 57.2687C0 82.27 20.2675 102.537 45.2687 102.537ZM45.2687 84.43C60.2695 84.43 72.43 72.2695 72.43 57.2687C72.43 42.268 60.2695 30.1075 45.2687 30.1075C30.268 30.1075 18.1075 42.268 18.1075 57.2687C18.1075 72.2695 30.268 84.43 45.2687 84.43Z"
          fill="#0040FF" fill-opacity="0.5"/>
    <path d="M87.5375 57.2687C87.5375 80.6131 68.6131 99.5375 45.2687 99.5375V105.537C71.9268 105.537 93.5375 83.9268 93.5375 57.2687H87.5375ZM45.2687 15C68.6131 15 87.5375 33.9244 87.5375 57.2687H93.5375C93.5375 30.6106 71.9268 9 45.2687 9V15ZM3 57.2687C3 33.9244 21.9244 15 45.2687 15V9C18.6107 9 -3 30.6106 -3 57.2687H3ZM45.2687 99.5375C21.9244 99.5375 3 80.6131 3 57.2687H-3C-3 83.9268 18.6107 105.537 45.2687 105.537V99.5375ZM69.43 57.2687C69.43 70.6126 58.6126 81.43 45.2687 81.43V87.43C61.9263 87.43 75.43 73.9263 75.43 57.2687H69.43ZM45.2687 33.1075C58.6126 33.1075 69.43 43.9249 69.43 57.2687H75.43C75.43 40.6112 61.9263 27.1075 45.2687 27.1075V33.1075ZM21.1075 57.2687C21.1075 43.9249 31.9248 33.1075 45.2687 33.1075V27.1075C28.6111 27.1075 15.1075 40.6112 15.1075 57.2687H21.1075ZM45.2687 81.43C31.9248 81.43 21.1075 70.6126 21.1075 57.2687H15.1075C15.1075 73.9263 28.6111 87.43 45.2687 87.43V81.43Z"
          fill="white" mask="url(#path-5-inside-2)"/>
</svg>
