<svg width="150" height="150" viewBox="0 0 150 150" fill="none" xmlns="http://www.w3.org/2000/svg">
    <rect x="61.5555" width="27.7778" height="71.4286" rx="13.8889" fill="#0040FF" fill-opacity="0.5"/>
    <path fill-rule="evenodd" clip-rule="evenodd"
          d="M48.2355 16.644C50.8877 15.5135 53.6191 18.1486 53.6191 21.0318V21.0318V31.0943C53.6191 39.7712 48.6529 47.4906 43.1627 54.2096C37.2965 61.3889 33.7778 70.5613 33.7778 80.5556C33.7778 103.567 52.4326 122.222 75.4445 122.222C98.4563 122.222 117.111 103.567 117.111 80.5556C117.111 70.5613 113.592 61.3889 107.726 54.2096C102.236 47.4906 97.2699 39.7712 97.2699 31.0943V21.0318V21.0318C97.2699 18.1486 100.001 15.5135 102.653 16.644C127.483 27.2283 144.889 51.8593 144.889 80.5556C144.889 118.909 113.798 150 75.4445 150C37.0913 150 6 118.909 6 80.5556C6 51.8593 23.4056 27.2283 48.2355 16.644Z"
          fill="#0040FF" fill-opacity="0.5"/>
</svg>
