<svg width="150" height="150" viewBox="0 0 150 150" fill="none" xmlns="http://www.w3.org/2000/svg">
    <rect x="63.0555" y="1.5" width="24.7778" height="68.4286" rx="12.3889" fill="white" fill-opacity="0.5"
          stroke="white" stroke-width="3"/>
    <mask id="path-4-inside-1" fill="white">
        <path fill-rule="evenodd" clip-rule="evenodd"
              d="M48.2355 16.6439C50.8877 15.5133 53.6191 18.1485 53.6191 21.0317V21.0317V31.0942C53.6191 39.771 48.6529 47.4905 43.1627 54.2095C37.2965 61.3888 33.7778 70.5612 33.7778 80.5555C33.7778 103.567 52.4326 122.222 75.4445 122.222C98.4563 122.222 117.111 103.567 117.111 80.5555C117.111 70.5612 113.592 61.3888 107.726 54.2095C102.236 47.4905 97.2699 39.771 97.2699 31.0942V21.0316V21.0316C97.2699 18.1485 100.001 15.5133 102.653 16.6439C127.483 27.2282 144.889 51.8592 144.889 80.5555C144.889 118.909 113.798 150 75.4445 150C37.0913 150 6 118.909 6 80.5555C6 51.8592 23.4056 27.2282 48.2355 16.6439Z"/>
    </mask>
    <path fill-rule="evenodd" clip-rule="evenodd"
          d="M48.2355 16.6439C50.8877 15.5133 53.6191 18.1485 53.6191 21.0317V21.0317V31.0942C53.6191 39.771 48.6529 47.4905 43.1627 54.2095C37.2965 61.3888 33.7778 70.5612 33.7778 80.5555C33.7778 103.567 52.4326 122.222 75.4445 122.222C98.4563 122.222 117.111 103.567 117.111 80.5555C117.111 70.5612 113.592 61.3888 107.726 54.2095C102.236 47.4905 97.2699 39.771 97.2699 31.0942V21.0316V21.0316C97.2699 18.1485 100.001 15.5133 102.653 16.6439C127.483 27.2282 144.889 51.8592 144.889 80.5555C144.889 118.909 113.798 150 75.4445 150C37.0913 150 6 118.909 6 80.5555C6 51.8592 23.4056 27.2282 48.2355 16.6439Z"
          fill="white" fill-opacity="0.5"/>
    <path d="M102.653 16.6439L101.477 19.4036L102.653 16.6439ZM43.1627 54.2095L40.8396 52.3113L43.1627 54.2095ZM48.2355 16.6439L47.0591 13.8842L48.2355 16.6439ZM56.6191 31.0942V21.0317H50.6191V31.0942H56.6191ZM40.8396 52.3113C34.5517 60.0067 30.7778 69.8444 30.7778 80.5555H36.7778C36.7778 71.278 40.0413 62.7709 45.4858 56.1077L40.8396 52.3113ZM30.7778 80.5555C30.7778 105.224 50.7757 125.222 75.4445 125.222V119.222C54.0894 119.222 36.7778 101.91 36.7778 80.5555H30.7778ZM75.4445 125.222C100.113 125.222 120.111 105.224 120.111 80.5555H114.111C114.111 101.91 96.7995 119.222 75.4445 119.222V125.222ZM120.111 80.5555C120.111 69.8444 116.337 60.0067 110.049 52.3113L105.403 56.1077C110.848 62.7709 114.111 71.278 114.111 80.5555H120.111ZM94.2699 21.0316V31.0942H100.27V21.0316H94.2699ZM147.889 80.5555C147.889 50.6148 129.726 24.9231 103.83 13.8842L101.477 19.4036C125.24 29.5332 141.889 53.1035 141.889 80.5555H147.889ZM75.4445 153C115.454 153 147.889 120.565 147.889 80.5555H141.889C141.889 117.252 112.141 147 75.4445 147V153ZM3 80.5555C3 120.565 35.4345 153 75.4445 153V147C38.7482 147 9 117.252 9 80.5555H3ZM47.0591 13.8842C21.1626 24.9231 3 50.6148 3 80.5555H9C9 53.1035 25.6486 29.5332 49.4119 19.4036L47.0591 13.8842ZM100.27 21.0316C100.27 20.5024 100.542 19.9369 100.93 19.6011C101.108 19.4477 101.247 19.3963 101.314 19.3821C101.359 19.3726 101.398 19.3702 101.477 19.4036L103.83 13.8842C101.228 12.7751 98.6868 13.6077 97.0038 15.0642C95.3631 16.4841 94.2699 18.6778 94.2699 21.0316H100.27ZM50.6191 31.0942C50.6191 38.653 46.2723 45.6626 40.8396 52.3113L45.4858 56.1077C51.0335 49.3183 56.6191 40.8891 56.6191 31.0942H50.6191ZM110.049 52.3113C104.617 45.6626 100.27 38.653 100.27 31.0942H94.2699C94.2699 40.8891 99.8554 49.3183 105.403 56.1077L110.049 52.3113ZM56.6191 21.0317C56.6191 18.6778 55.5258 16.4842 53.8851 15.0642C52.2021 13.6077 49.661 12.7751 47.0591 13.8842L49.4119 19.4036C49.4904 19.3702 49.5294 19.3726 49.5745 19.3821C49.6416 19.3963 49.7814 19.4477 49.9587 19.6011C50.3466 19.9369 50.6191 20.5024 50.6191 21.0317H56.6191Z"
          fill="white" mask="url(#path-4-inside-1)"/>
</svg>
