<svg width="150" height="150" viewBox="0 0 150 150" fill="none" xmlns="http://www.w3.org/2000/svg">
    <rect x="19.1135" y="59.4763" width="76.7005" height="27.0305" rx="13.5152" transform="rotate(45 19.1135 59.4763)"
          fill="#00FF47" fill-opacity="0.75"/>
    <rect x="19.1135" y="61.5976" width="73.7005" height="24.0305" rx="12.0152" transform="rotate(45 19.1135 61.5976)"
          stroke="white" stroke-opacity="0.5" stroke-width="3"/>
    <path d="M44.8762 123.124C39.5981 117.846 39.5981 109.289 44.8762 104.011L121.33 27.5568C126.608 22.2788 135.165 22.2788 140.443 27.5568V27.5568C145.721 32.8348 145.721 41.3922 140.443 46.6702L63.9896 123.124C58.7116 128.402 50.1542 128.402 44.8762 123.124V123.124Z"
          fill="#00FF47" fill-opacity="0.75"/>
    <path d="M45.9368 105.071L122.391 28.6175C127.083 23.9252 134.69 23.9252 139.383 28.6175C144.075 33.3097 144.075 40.9173 139.383 45.6096L62.929 122.063C58.2367 126.756 50.6291 126.756 45.9368 122.063C41.2446 117.371 41.2446 109.763 45.9368 105.071Z"
          stroke="white" stroke-opacity="0.5" stroke-width="3"/>
    <path d="M43.2616 28.6174L119.715 105.071C124.408 109.763 124.408 117.371 119.715 122.063C115.023 126.755 107.415 126.755 102.723 122.063L26.2694 45.6095C21.5772 40.9173 21.5772 33.3096 26.2694 28.6174C30.9617 23.9251 38.5693 23.9251 43.2616 28.6174Z"
          fill="#0040FF" fill-opacity="0.5" stroke="white" stroke-width="3"/>
</svg>
